<mxfile host="app.diagrams.net" modified="2023-10-24T18:26:23.466Z" agent="Mozilla/5.0 (Macintosh; Intel Mac OS X 10_15_7) AppleWebKit/537.36 (KHTML, like Gecko) Chrome/116.0.5845.2296 YaBrowser/23.9.0.2296 Yowser/2.5 Safari/537.36" version="22.0.7" etag="LDUppezVj1lZNAk3mF9g" type="github">
  <diagram name="Страница — 1" id="QI8qeovQ9IhLPv4biA59">
    <mxGraphModel>
      <root>
        <mxCell id="0" />
        <mxCell id="1" parent="0" />
      </root>
    </mxGraphModel>
  </diagram>
</mxfile>
